<?xml version="1.0" encoding="utf-8"?>
<!-- Generator: Adobe Illustrator 23.0.3, SVG Export Plug-In . SVG Version: 6.00 Build 0)  -->
<svg version="1.1" id="Layer_1" xmlns="http://www.w3.org/2000/svg" xmlns:xlink="http://www.w3.org/1999/xlink" x="0px" y="0px"
	 viewBox="0 0 28 28" style="enable-background:new 0 0 28 28;" xml:space="preserve">
<style type="text/css">
	.st0{fill:#F7FBFC;}
</style>
<path class="st0" d="M20.81,19.17c-0.01-0.01-0.02-0.01-0.02-0.01h-3.71c-0.43,0-0.78-0.35-0.78-0.78v-0.37c0-0.04,0-0.07,0.01-0.11
	c3.23-0.98,5.58-3.99,5.58-7.54c0-0.24-0.01-0.49-0.03-0.73C21.48,5.63,18.11,2.49,14,2.49c-4.08,0-7.43,3.1-7.84,7.07c0,0,0,0,0,0
	c-0.02,0.27-0.04,0.53-0.04,0.81c0,3.55,2.35,6.55,5.58,7.54c0.01,0.04,0.01,0.08,0.01,0.11v0.36c0,0.43-0.35,0.78-0.78,0.78H7.21
	c-0.01,0-0.02,0-0.03,0.01c0,0,0,0,0,0c-3.55,0.17-6.42,2.87-6.86,6.34h27.35C27.24,22.04,24.36,19.33,20.81,19.17z"/>
</svg>
