<?xml version="1.0" encoding="utf-8"?>
<!-- Generator: Adobe Illustrator 23.0.3, SVG Export Plug-In . SVG Version: 6.00 Build 0)  -->
<svg version="1.1" id="Layer_1" xmlns="http://www.w3.org/2000/svg" xmlns:xlink="http://www.w3.org/1999/xlink" x="0px" y="0px"
	 viewBox="0 0 40 40" style="enable-background:new 0 0 40 40;" xml:space="preserve">
<style type="text/css">
	.st0{fill:#FF7062;}
	.st1{fill:#424A60;}
	.st2{fill:#FBCE9D;}
	.st3{fill:#6C797A;}
	.st4{fill:#E7ECED;}
	.st5{fill:#CCD5D6;}
	.st6{fill:#FFFFFF;}
</style>
<g id="Group_317" transform="translate(4326.092 3065.613)">
	<path id="Path_310" class="st0" d="M-4306.09-3061.23c-8.62,0.01-15.61,7-15.62,15.62c0.01,8.62,7,15.61,15.62,15.61
		c8.62-0.01,15.6-7,15.61-15.61C-4290.49-3054.23-4297.47-3061.22-4306.09-3061.23z M-4306.09-3030.41
		c-8.39-0.01-15.19-6.81-15.2-15.2c0.01-8.39,6.81-15.19,15.2-15.2c8.39,0.01,15.19,6.81,15.2,15.2
		C-4290.9-3037.22-4297.7-3030.42-4306.09-3030.41z"/>
	<g id="Group_316">
		<circle id="Ellipse_16" class="st1" cx="-4306.09" cy="-3045.61" r="14.06"/>
		<path id="Path_311" class="st2" d="M-4294.49-3037.67c-0.33-3.14-2.97-5.52-6.12-5.52h-2.88c-0.36,0-0.66-0.29-0.66-0.66
			c0,0,0,0,0,0l0,0v-0.31c0-0.28,0.18-0.53,0.45-0.63c2.82-1.06,4.74-5.68,4.35-8.94c-0.39-3.1-2.85-5.54-5.96-5.91
			c-0.25-0.03-0.5-0.04-0.74-0.04h-0.02c-3.75-0.01-6.79,3.02-6.8,6.77c0,0,0,0,0,0.01v0.02c0,2.92,1.85,7.16,4.43,8.11
			c0.25,0.1,0.42,0.34,0.42,0.62v0.31c0,0.37-0.3,0.66-0.66,0.66h-2.88c-3.15,0-5.79,2.38-6.12,5.52c2.62,3.83,6.96,6.12,11.61,6.12
			C-4301.45-3031.54-4297.1-3033.84-4294.49-3037.67z"/>
		<path id="Path_312" class="st3" d="M-4303.91-3056.47c1.82,0.49,3.43,1.57,4.59,3.07c-0.01-0.1-0.01-0.22-0.02-0.32
			c-0.39-3.1-2.85-5.54-5.96-5.91c-0.25-0.03-0.5-0.04-0.74-0.04h-0.02c-3.3-0.01-6.13,2.36-6.7,5.62l0,0
			c0.09,0.12,0.17,0.25,0.26,0.36c0.03-0.04,0.07-0.08,0.1-0.13c0.99-1.13,2.61-1.46,3.97-0.81c0.43,0.19,0.9,0.29,1.37,0.29
			C-4305.67-3054.34-4304.43-3055.19-4303.91-3056.47z"/>
		<path id="Path_313" class="st4" d="M-4294.49-3037.67c-0.33-3.14-2.97-5.52-6.12-5.52h-0.64l-2.91,2.91h-3.88l-1.46-0.97
			l-1.67-1.94h-0.43c-3.15,0-5.79,2.38-6.12,5.52c2.62,3.83,6.96,6.13,11.61,6.12C-4301.46-3031.54-4297.11-3033.84-4294.49-3037.67
			z"/>
		<path id="Path_314" class="st5" d="M-4299.3-3033.3c0.33-0.18,0.65-0.38,0.97-0.59v-2.99h-0.97V-3033.3z"/>
		<path id="Path_315" class="st5" d="M-4312.88-3033.3v-3.59h-0.97v2.99C-4313.53-3033.69-4313.21-3033.48-4312.88-3033.3z"/>
		<path id="Path_317" class="st6" d="M-4306.09-3040.28l-3.4-2.91h-2.35c-0.03,0-0.05,0.02-0.05,0.05l0,0v0.02l1.91,4.78
			L-4306.09-3040.28L-4306.09-3040.28z"/>
		<path id="Path_318" class="st6" d="M-4300.34-3043.19h-2.36l-3.39,2.91l0,0l3.87,1.94l1.91-4.78c0.01-0.02,0-0.05-0.03-0.06
			L-4300.34-3043.19z"/>
	</g>
</g>
</svg>
