<?xml version="1.0" encoding="utf-8"?>
<!-- Generator: Adobe Illustrator 23.0.3, SVG Export Plug-In . SVG Version: 6.00 Build 0)  -->
<svg version="1.1" id="Layer_1" xmlns="http://www.w3.org/2000/svg" xmlns:xlink="http://www.w3.org/1999/xlink" x="0px" y="0px"
	 viewBox="0 0 13 13" style="enable-background:new 0 0 13 13;" xml:space="preserve">
<style type="text/css">
	.st0{fill:#FF7062;}
</style>
<g>
	<path class="st0" d="M12,0.07H1c-0.46,0-0.83,0.37-0.83,0.83v11.2c0,0.46,0.37,0.83,0.83,0.83H12c0.46,0,0.83-0.37,0.83-0.83V0.9
		C12.83,0.44,12.46,0.07,12,0.07z M12.64,11.83H0.36v-9.4h12.28V11.83z"/>
	<rect x="3.1" y="3.86" class="st0" width="1.41" height="1.41"/>
	<rect x="4.9" y="3.86" class="st0" width="1.41" height="1.41"/>
	<rect x="6.7" y="3.86" class="st0" width="1.41" height="1.41"/>
	<rect x="8.5" y="3.86" class="st0" width="1.41" height="1.41"/>
	<rect x="10.3" y="3.86" class="st0" width="1.41" height="1.41"/>
	<rect x="1.3" y="5.9" class="st0" width="1.41" height="1.41"/>
	<rect x="3.1" y="5.9" class="st0" width="1.41" height="1.41"/>
	<rect x="4.9" y="5.9" class="st0" width="1.41" height="1.41"/>
	<rect x="6.7" y="5.9" class="st0" width="1.41" height="1.41"/>
	<rect x="8.5" y="5.9" class="st0" width="1.41" height="1.41"/>
	<rect x="3.1" y="7.95" class="st0" width="1.41" height="1.41"/>
	<rect x="4.9" y="7.95" class="st0" width="1.41" height="1.41"/>
	<rect x="6.7" y="7.95" class="st0" width="1.41" height="1.41"/>
	<rect x="8.5" y="7.95" class="st0" width="1.41" height="1.41"/>
	<rect x="10.3" y="7.95" class="st0" width="1.41" height="1.41"/>
</g>
</svg>
