<?xml version="1.0" encoding="utf-8"?>
<!-- Generator: Adobe Illustrator 23.0.3, SVG Export Plug-In . SVG Version: 6.00 Build 0)  -->
<svg version="1.1" id="Layer_1" xmlns="http://www.w3.org/2000/svg" xmlns:xlink="http://www.w3.org/1999/xlink" x="0px" y="0px"
	 viewBox="0 0 13 13" style="enable-background:new 0 0 13 13;" xml:space="preserve">
<style type="text/css">
	.st0{fill:#FF7062;}
</style>
<g>
	<path class="st0" d="M0.5,4.25h12c0.28,0,0.5-0.22,0.5-0.5s-0.22-0.5-0.5-0.5h-12C0.23,3.25,0,3.48,0,3.75S0.23,4.25,0.5,4.25z"/>
	<path class="st0" d="M12.5,6h-12C0.23,6,0,6.22,0,6.5S0.23,7,0.5,7h12C12.77,7,13,6.78,13,6.5S12.77,6,12.5,6z"/>
	<path class="st0" d="M12.5,8.75h-12C0.23,8.75,0,8.97,0,9.25s0.22,0.5,0.5,0.5h12c0.28,0,0.5-0.22,0.5-0.5S12.77,8.75,12.5,8.75z"
		/>
</g>
</svg>
