<?xml version="1.0" encoding="utf-8"?>
<!-- Generator: Adobe Illustrator 23.0.3, SVG Export Plug-In . SVG Version: 6.00 Build 0)  -->
<svg version="1.1" id="Layer_1" xmlns="http://www.w3.org/2000/svg" xmlns:xlink="http://www.w3.org/1999/xlink" x="0px" y="0px"
	 viewBox="0 0 15.17 9.65" style="enable-background:new 0 0 15.17 9.65;" xml:space="preserve">
<style type="text/css">
	.st0{fill:#40434E;}
</style>
<g id="Group_276" transform="translate(-1645.946 -260.833)">
	<g id="Group_273">
		<path id="Rectangle_95" class="st0" d="M1646.33,269.05h14.39c0.17,0,0.3,0.13,0.3,0.3v0.83c0,0.17-0.13,0.3-0.3,0.3h-14.39
			c-0.17,0-0.3-0.13-0.3-0.3v-0.83C1646.03,269.19,1646.17,269.05,1646.33,269.05z"/>
	</g>
	<g id="Group_274">
		<path id="Path_281" class="st0" d="M1661.03,265.24v0.84c0,0.16-0.13,0.29-0.3,0.29c0,0,0,0,0,0h-11.26c-0.16,0-0.3-0.12-0.3-0.28
			c0,0,0,0,0-0.01v-0.84c0-0.17,0.13-0.3,0.3-0.3l0,0h11.26C1660.89,264.94,1661.03,265.08,1661.03,265.24L1661.03,265.24z"/>
	</g>
	<g id="Group_275">
		<path id="Path_282" class="st0" d="M1661.03,261.13v0.84c0,0.16-0.13,0.29-0.3,0.29c0,0,0,0,0,0h-8.13c-0.16,0-0.3-0.12-0.3-0.29
			c0,0,0,0,0,0v-0.84c0-0.17,0.13-0.3,0.3-0.3l0,0h8.13C1660.89,260.83,1661.03,260.97,1661.03,261.13L1661.03,261.13z"/>
	</g>
</g>
</svg>
