<?xml version="1.0" encoding="utf-8"?>
<!-- Generator: Adobe Illustrator 23.0.3, SVG Export Plug-In . SVG Version: 6.00 Build 0)  -->
<svg version="1.1" id="Layer_1" xmlns="http://www.w3.org/2000/svg" xmlns:xlink="http://www.w3.org/1999/xlink" x="0px" y="0px"
	 viewBox="0 0 40 40" style="enable-background:new 0 0 40 40;" xml:space="preserve">
<style type="text/css">
	.st0{fill:#FF7062;}
</style>
<g id="Group_421_1_" transform="translate(-4642.987 1757.862)">
	<path id="Path_847_1_" class="st0" d="M4662.99-1754.91c-9.41,0.01-17.04,7.64-17.05,17.05c0.01,9.41,7.64,17.04,17.05,17.05
		c9.41-0.01,17.04-7.64,17.05-17.05C4680.02-1747.27,4672.4-1754.9,4662.99-1754.91z M4662.99-1721.69
		c-8.93-0.01-16.16-7.24-16.17-16.17c0.01-8.93,7.25-16.16,16.17-16.17c8.93,0.01,16.16,7.25,16.17,16.17
		C4679.15-1728.93,4671.92-1721.7,4662.99-1721.69L4662.99-1721.69z"/>
	<path id="Path_848_1_" class="st0" d="M4672.94-1747.82c-0.26-0.26-0.69-0.26-0.95,0l-9.01,9.01l-9.01-9.01
		c-0.26-0.26-0.69-0.26-0.95,0c-0.26,0.26-0.26,0.69,0,0.95c0,0,0,0,0,0l9.01,9.01l-9.01,9.01c-0.26,0.26-0.26,0.69,0,0.95
		c0,0,0,0,0,0c0.13,0.13,0.3,0.2,0.47,0.2c0.18,0,0.35-0.07,0.47-0.2l9.01-9.01l9.01,9.01c0.13,0.13,0.3,0.2,0.47,0.2
		c0.18,0,0.35-0.07,0.47-0.2c0.26-0.26,0.26-0.69,0-0.95c0,0,0,0,0,0l-9.01-9.01l9.01-9.01
		C4673.21-1747.13,4673.21-1747.56,4672.94-1747.82C4672.95-1747.82,4672.95-1747.82,4672.94-1747.82z"/>
</g>
</svg>
