<?xml version="1.0" encoding="utf-8"?>
<!-- Generator: Adobe Illustrator 23.0.3, SVG Export Plug-In . SVG Version: 6.00 Build 0)  -->
<svg version="1.1" id="Layer_1" xmlns="http://www.w3.org/2000/svg" xmlns:xlink="http://www.w3.org/1999/xlink" x="0px" y="0px"
	 viewBox="0 0 66 20" style="enable-background:new 0 0 66 20;" xml:space="preserve">
<style type="text/css">
	.st0{fill:#FFFFFF;}
</style>
<g id="XMLID_1_" transform="matrix( 1, 0, 0, 1, 275,616.7) ">
	<g id="XMLID_2_" transform="matrix( 1, 0, 0, 1, 0,0) ">
		<g id="XMLID_3_">
			<g id="Symbol_1_0_Layer0_0_FILL_2_">
				<path id="XMLID_4_" class="st0" d="M-247-597.43h1.87l-7.48-18.8l-7.46,18.8h1.84l0.76-1.89h-0.01l4.88-12.23L-247-597.43
					 M-263.8-613.47c-0.4-0.69-0.94-1.22-1.62-1.61c-0.67-0.4-1.42-0.6-2.26-0.61h-5l0.01,18.26h5.15c1.04-0.01,1.97-0.25,2.8-0.73
					c0.83-0.49,1.49-1.14,1.98-1.96c0.49-0.83,0.74-1.77,0.75-2.81c-0.01-1.07-0.29-2.03-0.86-2.88c-0.54-0.86-1.25-1.5-2.14-1.93
					c0.54-0.33,0.97-0.81,1.3-1.44c0.32-0.63,0.48-1.3,0.49-1.99C-263.2-612.04-263.4-612.8-263.8-613.47 M-270.93-614.08h3.25
					c0.51,0.01,0.97,0.14,1.38,0.4c0.4,0.27,0.72,0.62,0.96,1.05c0.23,0.43,0.35,0.91,0.36,1.45c-0.01,0.51-0.13,0.98-0.36,1.4
					c-0.24,0.43-0.56,0.77-0.96,1.03c-0.4,0.25-0.86,0.37-1.38,0.37h-3.25V-614.08 M-267.53-606.79v0.02
					c0.71,0.01,1.35,0.18,1.9,0.51c0.56,0.33,1.01,0.8,1.34,1.38c0.33,0.58,0.5,1.22,0.5,1.93c0,0.72-0.17,1.38-0.5,1.96
					c-0.33,0.59-0.78,1.06-1.34,1.4c-0.56,0.35-1.2,0.53-1.9,0.53h-3.39l-0.01-7.72c0.82,0,1.46,0,1.93,0c0.46,0,0.79,0,0.99,0
					c0.2-0.01,0.34-0.01,0.4-0.01C-267.56-606.78-267.53-606.78-267.53-606.79 M-211.32-615.69h-1.76v18.26h1.76V-615.69
					 M-224.15-615.36c-0.77,0.38-1.37,0.91-1.81,1.59c-0.44,0.68-0.67,1.47-0.68,2.39c0.02,1.17,0.28,2.09,0.75,2.75
					c0.48,0.67,1.08,1.19,1.8,1.57c0.73,0.37,1.47,0.69,2.22,0.95c0.69,0.25,1.35,0.53,1.96,0.83c0.62,0.29,1.11,0.7,1.49,1.21
					c0.39,0.5,0.6,1.17,0.61,2.01c-0.02,0.75-0.19,1.35-0.51,1.79c-0.33,0.44-0.72,0.77-1.19,0.97c-0.46,0.2-0.9,0.33-1.32,0.39
					c-0.4,0.06-0.7,0.08-0.87,0.07c-0.89,0.01-1.7-0.13-2.43-0.41c-0.73-0.27-1.42-0.71-2.06-1.3l-1.05,1.37
					c0.8,0.71,1.64,1.22,2.55,1.53c0.91,0.33,1.9,0.49,2.99,0.48c0.71,0,1.4-0.1,2.07-0.29c0.68-0.19,1.29-0.48,1.84-0.89
					c0.53-0.39,0.97-0.89,1.31-1.52c0.32-0.62,0.48-1.35,0.49-2.2c-0.02-1.13-0.25-2.05-0.72-2.75c-0.45-0.71-1.04-1.27-1.76-1.69
					c-0.73-0.43-1.51-0.79-2.32-1.08c-0.69-0.25-1.35-0.5-1.96-0.76c-0.6-0.26-1.09-0.62-1.48-1.08c-0.38-0.47-0.58-1.12-0.6-1.95
					c0.02-0.69,0.19-1.25,0.51-1.68c0.33-0.42,0.76-0.73,1.28-0.92c0.52-0.2,1.06-0.3,1.62-0.29c0.73,0.01,1.42,0.16,2.08,0.43
					c0.65,0.27,1.25,0.61,1.79,1l1.03-1.36c-0.66-0.51-1.41-0.92-2.23-1.24c-0.82-0.31-1.71-0.48-2.66-0.49
					C-222.46-615.93-223.37-615.74-224.15-615.36 M-233.7-614.5c-1.34-0.78-2.86-1.17-4.58-1.19h-3.95v18.26h3.95
					c1.71-0.02,3.24-0.41,4.58-1.18c1.33-0.78,2.39-1.85,3.16-3.21c0.76-1.36,1.15-2.93,1.17-4.7c-0.02-1.79-0.41-3.38-1.17-4.75
					C-231.31-612.65-232.36-613.72-233.7-614.5 M-240.47-614.08h2.2c1.38,0.02,2.61,0.35,3.68,0.99c1.06,0.66,1.89,1.55,2.5,2.68
					c0.61,1.13,0.91,2.42,0.92,3.88c0,1.44-0.31,2.72-0.92,3.84c-0.61,1.12-1.44,2.01-2.5,2.66c-1.07,0.64-2.29,0.97-3.68,0.98h-2.2
					V-614.08z"/>
			</g>
		</g>
	</g>
</g>
</svg>
