<?xml version="1.0" encoding="utf-8"?>
<!-- Generator: Adobe Illustrator 23.0.3, SVG Export Plug-In . SVG Version: 6.00 Build 0)  -->
<svg version="1.1" id="Layer_1" xmlns="http://www.w3.org/2000/svg" xmlns:xlink="http://www.w3.org/1999/xlink" x="0px" y="0px"
	 viewBox="0 0 43.61 43.61" style="enable-background:new 0 0 43.61 43.61;" xml:space="preserve">
<style type="text/css">
	.st0{fill:#FFFFFF;}
	.st1{fill:#F7FBFC;}
	.st2{fill:#383838;}
</style>
<g>
	<g>
		<path class="st0" d="M94.65-21.39c-11.62,0-21.07-9.45-21.07-21.08s9.45-21.08,21.07-21.08s21.08,9.45,21.08,21.08
			S106.27-21.39,94.65-21.39z M94.65-62.41c-11,0-19.94,8.95-19.94,19.94s8.95,19.94,19.94,19.94c11,0,19.94-8.95,19.94-19.94
			S105.65-62.41,94.65-62.41z"/>
	</g>
	<g>
		<g>
			<path class="st0" d="M94.65-32.28c-3.16,0-5.73-2.02-5.73-4.49c0-0.23,0.19-0.44,0.43-0.44c0.23,0,0.43,0.17,0.43,0.41
				c0,0.01,0,0.04,0,0.06c0,1.99,2.19,3.62,4.88,3.62c2.69,0,4.88-1.63,4.88-3.64c0-0.23,0.19-0.44,0.42-0.44
				c0.23,0,0.42,0.17,0.42,0.41C100.38-34.3,97.81-32.28,94.65-32.28z"/>
		</g>
		<g>
			<g>
				<path class="st0" d="M90.33-47.71c-0.23,0-0.43-0.17-0.43-0.41c0-0.01,0-0.04,0-0.06c0-1.99-1.64-3.62-3.65-3.62
					s-3.64,1.63-3.64,3.64c0,0.23-0.19,0.44-0.42,0.44c-0.24,0-0.42-0.17-0.42-0.41c0-2.51,2.01-4.53,4.49-4.53s4.49,2.02,4.49,4.49
					C90.76-47.92,90.57-47.71,90.33-47.71z"/>
			</g>
			<g>
				<path class="st0" d="M107.1-47.71c-0.23,0-0.43-0.17-0.43-0.41c0-0.01,0-0.04,0-0.06c0-1.99-1.64-3.62-3.65-3.62
					c-2.01,0-3.64,1.63-3.64,3.64c0,0.23-0.19,0.44-0.42,0.44c-0.24,0-0.42-0.17-0.42-0.41c0-2.51,2.01-4.53,4.49-4.53
					s4.49,2.02,4.49,4.49C107.53-47.92,107.34-47.71,107.1-47.71z"/>
			</g>
		</g>
	</g>
</g>
<g>
	<g>
		<path class="st1" d="M21.81,96.39c-11.62,0-21.08-9.45-21.08-21.08s9.45-21.08,21.08-21.08s21.07,9.45,21.07,21.08
			S33.43,96.39,21.81,96.39z M21.81,55.37c-11,0-19.94,8.95-19.94,19.94s8.95,19.94,19.94,19.94c11,0,19.94-8.95,19.94-19.94
			S32.8,55.37,21.81,55.37z"/>
	</g>
	<g>
		<g>
			<path class="st1" d="M16.5,85.48c-0.23,0-0.42-0.17-0.42-0.41c0-2.51,2.57-4.53,5.73-4.53c3.16,0,5.73,2.02,5.73,4.49l-0.43,0.03
				l-0.42-0.05c0-2-2.19-3.63-4.88-3.63s-4.88,1.63-4.88,3.64C16.93,85.28,16.74,85.48,16.5,85.48z"/>
		</g>
		<g>
			<g>
				<path class="st1" d="M17.49,70.07c-0.23,0-0.42-0.17-0.42-0.41c0-0.01,0-0.03,0-0.04c0-2.01-1.64-3.64-3.64-3.64
					s-3.64,1.63-3.64,3.64c0,0.23-0.19,0.44-0.42,0.44c-0.23,0-0.42-0.17-0.42-0.41c0-2.51,2.01-4.53,4.49-4.53s4.49,2.02,4.49,4.49
					C17.92,69.86,17.73,70.07,17.49,70.07z"/>
			</g>
			<g>
				<path class="st1" d="M34.26,70.07c-0.24,0-0.43-0.17-0.43-0.41c0-0.01,0-0.03,0-0.04c0-2.01-1.63-3.64-3.64-3.64
					s-3.64,1.63-3.64,3.64c0,0.23-0.19,0.44-0.42,0.44c-0.24,0-0.42-0.17-0.42-0.41c0-2.51,2.01-4.53,4.49-4.53
					c2.48,0,4.49,2.02,4.49,4.49C34.69,69.86,34.5,70.07,34.26,70.07z"/>
			</g>
		</g>
	</g>
</g>
<g>
	<g>
		<path class="st2" d="M129.38,19.63c-11.62,0-21.07-9.45-21.07-21.08s9.45-21.08,21.07-21.08s21.08,9.45,21.08,21.08
			S141,19.63,129.38,19.63z M129.38-21.39c-11,0-19.94,8.95-19.94,19.94s8.95,19.94,19.94,19.94c11,0,19.94-8.95,19.94-19.94
			S140.38-21.39,129.38-21.39z"/>
	</g>
	<g>
		<g>
			<path class="st2" d="M135.25,6.97h-11.73c-0.23,0-0.42-0.19-0.42-0.42c0-0.23,0.19-0.42,0.42-0.42h11.73
				c0.23,0,0.42,0.19,0.42,0.42C135.67,6.78,135.48,6.97,135.25,6.97z"/>
		</g>
		<g>
			<g>
				<path class="st2" d="M121-6.11c-0.23,0-0.42-0.19-0.42-0.42v-4.67c0-0.23,0.19-0.42,0.42-0.42c0.23,0,0.42,0.19,0.42,0.42v4.67
					C121.42-6.3,121.23-6.11,121-6.11z"/>
			</g>
			<g>
				<path class="st2" d="M137.77-6.11c-0.23,0-0.42-0.19-0.42-0.42v-4.67c0-0.23,0.19-0.42,0.42-0.42c0.23,0,0.42,0.19,0.42,0.42
					v4.67C138.19-6.3,138-6.11,137.77-6.11z"/>
			</g>
		</g>
	</g>
</g>
<g>
	<g>
		<path class="st0" d="M21.81,42.88c-11.62,0-21.07-9.45-21.07-21.08S10.19,0.73,21.81,0.73s21.08,9.45,21.08,21.08
			S33.43,42.88,21.81,42.88z M21.81,1.86c-11,0-19.94,8.95-19.94,19.94s8.95,19.94,19.94,19.94c11,0,19.94-8.95,19.94-19.94
			S32.8,1.86,21.81,1.86z"/>
	</g>
	<g>
		<g>
			<path class="st0" d="M27.67,30.22H15.94c-0.23,0-0.42-0.19-0.42-0.42s0.19-0.42,0.42-0.42h11.73c0.23,0,0.42,0.19,0.42,0.42
				S27.91,30.22,27.67,30.22z"/>
		</g>
		<g>
			<g>
				<path class="st0" d="M13.42,17.14c-0.23,0-0.42-0.19-0.42-0.42v-4.67c0-0.23,0.19-0.42,0.42-0.42s0.42,0.19,0.42,0.42v4.67
					C13.85,16.95,13.66,17.14,13.42,17.14z"/>
			</g>
			<g>
				<path class="st0" d="M30.19,17.14c-0.23,0-0.42-0.19-0.42-0.42v-4.67c0-0.23,0.19-0.42,0.42-0.42s0.42,0.19,0.42,0.42v4.67
					C30.62,16.95,30.43,17.14,30.19,17.14z"/>
			</g>
		</g>
	</g>
</g>
</svg>
