<?xml version="1.0" encoding="utf-8"?>
<!-- Generator: Adobe Illustrator 23.0.3, SVG Export Plug-In . SVG Version: 6.00 Build 0)  -->
<svg version="1.1" id="Layer_1" xmlns="http://www.w3.org/2000/svg" xmlns:xlink="http://www.w3.org/1999/xlink" x="0px" y="0px"
	 viewBox="0 0 40 40" style="enable-background:new 0 0 40 40;" xml:space="preserve">
<style type="text/css">
	.st0{fill:#FF7062;}
</style>
<g>
	<g>
		<path class="st0" d="M6.93,13.92H3.61c-0.56,0-1.01,0.38-1.01,0.86v21.77c0,0.47,0.45,0.86,1.01,0.86h3.32
			c0.56,0,1.01-0.38,1.01-0.86V14.78C7.94,14.31,7.49,13.92,6.93,13.92z"/>
		<path class="st0" d="M21.66,8.26h-3.32c-0.56,0-1.01,0.38-1.01,0.86v5.01v22.63c0,0.47,0.45,0.86,1.01,0.86h3.32
			c0.56,0,1.01-0.38,1.01-0.86V14.13V9.12C22.67,8.64,22.22,8.26,21.66,8.26z"/>
		<path class="st0" d="M36.39,2.39h-3.32c-0.56,0-1.01,0.38-1.01,0.86v5.01v5.87v22.63c0,0.47,0.45,0.86,1.01,0.86h3.32
			c0.56,0,1.01-0.38,1.01-0.86V14.13V8.26V3.25C37.4,2.77,36.95,2.39,36.39,2.39z"/>
	</g>
</g>
</svg>
