<?xml version="1.0" encoding="utf-8"?>
<!-- Generator: Adobe Illustrator 23.0.3, SVG Export Plug-In . SVG Version: 6.00 Build 0)  -->
<svg version="1.1" id="Layer_1" xmlns="http://www.w3.org/2000/svg" xmlns:xlink="http://www.w3.org/1999/xlink" x="0px" y="0px"
	 viewBox="0 0 40 40" style="enable-background:new 0 0 40 40;" xml:space="preserve">
<style type="text/css">
	.st0{fill:#FF7062;}
</style>
<g>
	<g>
		<g>
			<path class="st0" d="M25.02,5.34H2.29c-1.2,0-2.18,0.98-2.18,2.18v18.94c0,1.2,0.98,2.18,2.18,2.18h7.97l3.13,4.06
				c0.06,0.08,0.16,0.13,0.26,0.13c0.04,0,0.07-0.01,0.11-0.02c0.13-0.04,0.22-0.17,0.22-0.31v-3.86h2.12v-0.65h-2.45
				c-0.18,0-0.33,0.15-0.33,0.33v3.23l-2.65-3.43c-0.06-0.08-0.16-0.13-0.26-0.13H2.29c-0.84,0-1.53-0.68-1.53-1.53V7.52
				c0-0.84,0.68-1.53,1.53-1.53h22.73c0.84,0,1.53,0.68,1.53,1.53v3.02h0.65V7.52C27.2,6.31,26.22,5.34,25.02,5.34z"/>
		</g>
		<g>
			<g>
				<path class="st0" d="M38.02,11.09H18.53c-1.03,0-1.87,0.84-1.87,1.87V29.2c0,1.03,0.84,1.87,1.87,1.87H28v3.31
					c0,0.12,0.08,0.23,0.19,0.27c0.03,0.01,0.06,0.01,0.09,0.01c0.09,0,0.17-0.04,0.22-0.11l2.69-3.48h6.84
					c1.03,0,1.87-0.84,1.87-1.87V12.96C39.89,11.93,39.05,11.09,38.02,11.09z M39.33,29.2c0,0.72-0.59,1.31-1.31,1.31h-6.98
					c-0.09,0-0.17,0.04-0.22,0.11l-2.27,2.94v-2.77c0-0.15-0.13-0.28-0.28-0.28h-9.75c-0.72,0-1.31-0.59-1.31-1.31V12.96
					c0-0.72,0.59-1.31,1.31-1.31h19.49c0.72,0,1.31,0.59,1.31,1.31V29.2z"/>
				<path class="st0" d="M27.2,12.22v14.24c0,1.2-0.98,2.18-2.18,2.18h-7.24v-0.65h7.24c0.84,0,1.53-0.68,1.53-1.53V12.22H27.2z"/>
			</g>
		</g>
	</g>
</g>
</svg>
