<?xml version="1.0" encoding="utf-8"?>
<!-- Generator: Adobe Illustrator 23.0.3, SVG Export Plug-In . SVG Version: 6.00 Build 0)  -->
<svg version="1.1" id="Layer_1" xmlns="http://www.w3.org/2000/svg" xmlns:xlink="http://www.w3.org/1999/xlink" x="0px" y="0px"
	 viewBox="0 0 13 13" style="enable-background:new 0 0 13 13;" xml:space="preserve">
<style type="text/css">
	.st0{fill:#FF7062;}
</style>
<path class="st0" d="M12.84,11.48l-2.48-2.09c0.51-0.84,0.82-1.83,0.82-2.89c0-3.07-2.5-5.57-5.57-5.57c-3.07,0-5.57,2.5-5.57,5.57
	c0,3.07,2.5,5.57,5.57,5.57c1.77,0,3.35-0.83,4.37-2.13l2.43,2.05c0.06,0.05,0.14,0.08,0.22,0.08c0.1,0,0.19-0.04,0.26-0.12
	C13,11.81,12.99,11.6,12.84,11.48z M5.61,11.4c-2.7,0-4.9-2.2-4.9-4.9s2.2-4.9,4.9-4.9s4.9,2.2,4.9,4.9S8.31,11.4,5.61,11.4z"/>
</svg>
